<svg xmlns="http://www.w3.org/2000/svg" viewBox="0 0 64 64" role="img" aria-label="German Losada">
  <rect width="64" height="64" rx="16" fill="#18181b"/>
  <circle cx="32" cy="32" r="25" fill="#8b8f98"/>
  <path fill="#18181b" d="M31.4 14.5c6.9 0 12.7 3.1 16 8.1l-7.7 4.5c-1.7-2.7-4.6-4.4-8.2-4.4-5.6 0-9.8 4-9.8 9.7s4.2 9.8 10.2 9.8c4.4 0 7.6-2 9.1-5.5H31.2v-8h19.9v4.1c0 10.3-7.6 18.8-19.2 18.8-11.3 0-19.8-8.2-19.8-19.2 0-10.6 8.4-17.9 19.3-17.9z"/>
  <path fill="#18181b" d="M45.8 19.1h8.1v8.1h-8.1z"/>
</svg>
